<mxfile host="app.diagrams.net" modified="2021-09-02T08:21:24.582Z" agent="5.0 (Windows NT 10.0; Win64; x64) AppleWebKit/537.36 (KHTML, like Gecko) Chrome/92.0.4515.159 Safari/537.36" etag="pZKlPfwylU41dP0g8lFY" version="15.0.4" type="github" pages="2">
  <diagram name="Page-1" id="099fd60b-425b-db50-ffb0-6b813814b670">
    <mxGraphModel dx="1422" dy="705" grid="1" gridSize="10" guides="1" tooltips="1" connect="1" arrows="1" fold="1" page="1" pageScale="1" pageWidth="850" pageHeight="1100" background="none" math="0" shadow="0">
      <root>
        <mxCell id="0" />
        <mxCell id="1" parent="0" />
        <mxCell id="j7jKjwzYv9FOD8dTJ_4K-2" value="" style="strokeColor=#666666;html=1;verticalLabelPosition=bottom;labelBackgroundColor=#ffffff;verticalAlign=top;outlineConnect=0;shadow=0;dashed=0;shape=mxgraph.rackGeneral.container;container=1;collapsible=0;childLayout=rack;allowGaps=1;marginLeft=33;marginRight=9;marginTop=21;marginBottom=22;textColor=#666666;numDisp=ascend;" parent="1" vertex="1">
          <mxGeometry x="235" y="120" width="380" height="890" as="geometry" />
        </mxCell>
        <mxCell id="j7jKjwzYv9FOD8dTJ_4K-8" value="" style="shape=mxgraph.rack.cisco.cisco_carrier_packet_transport_50;html=1;labelPosition=right;align=left;spacingLeft=15;dashed=0;shadow=0;fillColor=#ffffff;" parent="j7jKjwzYv9FOD8dTJ_4K-2" vertex="1">
          <mxGeometry x="33" y="60" width="338" height="15" as="geometry" />
        </mxCell>
        <mxCell id="j7jKjwzYv9FOD8dTJ_4K-9" value="" style="shape=mxgraph.rack.cisco.cisco_carrier_packet_transport_50;html=1;labelPosition=right;align=left;spacingLeft=15;dashed=0;shadow=0;fillColor=#ffffff;" parent="j7jKjwzYv9FOD8dTJ_4K-2" vertex="1">
          <mxGeometry x="33" y="80" width="338" height="15" as="geometry" />
        </mxCell>
        <mxCell id="j7jKjwzYv9FOD8dTJ_4K-10" value="" style="strokeColor=#666666;html=1;labelPosition=right;align=left;spacingLeft=15;shadow=0;dashed=0;outlineConnect=0;shape=mxgraph.rack.f5.big_ip_10x00;" parent="j7jKjwzYv9FOD8dTJ_4K-2" vertex="1">
          <mxGeometry x="33" y="120" width="338" height="40" as="geometry" />
        </mxCell>
        <mxCell id="j7jKjwzYv9FOD8dTJ_4K-11" value="" style="html=1;verticalLabelPosition=bottom;verticalAlign=top;outlineConnect=0;shadow=0;dashed=0;shape=mxgraph.rack.hpe_aruba.switches.j9775a_2530_48g_switch;" parent="j7jKjwzYv9FOD8dTJ_4K-2" vertex="1">
          <mxGeometry x="33" y="180" width="338" height="15" as="geometry" />
        </mxCell>
        <mxCell id="j7jKjwzYv9FOD8dTJ_4K-12" value="" style="html=1;verticalLabelPosition=bottom;verticalAlign=top;outlineConnect=0;shadow=0;dashed=0;shape=mxgraph.rack.hpe_aruba.switches.j9775a_2530_48g_switch;" parent="j7jKjwzYv9FOD8dTJ_4K-2" vertex="1">
          <mxGeometry x="33" y="210" width="338" height="15" as="geometry" />
        </mxCell>
        <mxCell id="j7jKjwzYv9FOD8dTJ_4K-5" value="" style="strokeColor=#666666;html=1;labelPosition=right;align=left;spacingLeft=15;shadow=0;dashed=0;outlineConnect=0;shape=mxgraph.rack.dell.poweredge_r840;" parent="j7jKjwzYv9FOD8dTJ_4K-2" vertex="1">
          <mxGeometry x="33" y="260" width="338" height="30" as="geometry" />
        </mxCell>
        <mxCell id="j7jKjwzYv9FOD8dTJ_4K-6" value="" style="shape=mxgraph.rack.hp.hp_proliant_dl385p_g8;html=1;labelPosition=right;align=left;spacingLeft=15;dashed=0;shadow=0;fillColor=#ffffff;" parent="j7jKjwzYv9FOD8dTJ_4K-2" vertex="1">
          <mxGeometry x="33" y="320" width="338" height="30" as="geometry" />
        </mxCell>
        <mxCell id="j7jKjwzYv9FOD8dTJ_4K-7" value="" style="shape=mxgraph.rack.hp.hp_proliant_dl385p_g8;html=1;labelPosition=right;align=left;spacingLeft=15;dashed=0;shadow=0;fillColor=#ffffff;" parent="j7jKjwzYv9FOD8dTJ_4K-2" vertex="1">
          <mxGeometry x="33" y="360" width="338" height="30" as="geometry" />
        </mxCell>
        <mxCell id="j7jKjwzYv9FOD8dTJ_4K-13" value="" style="shape=mxgraph.rack.apc.apc_smart_ups_750_va_1u;html=1;labelPosition=right;align=left;spacingLeft=15;dashed=0;shadow=0;fillColor=#ffffff;" parent="j7jKjwzYv9FOD8dTJ_4K-2" vertex="1">
          <mxGeometry x="33" y="415" width="338" height="15" as="geometry" />
        </mxCell>
        <mxCell id="j7jKjwzYv9FOD8dTJ_4K-22" value="" style="shape=mxgraph.rack.hp.hp_proliant_dl385p_g8;html=1;labelPosition=right;align=left;spacingLeft=15;dashed=0;shadow=0;fillColor=#ffffff;" parent="j7jKjwzYv9FOD8dTJ_4K-2" vertex="1">
          <mxGeometry x="33" y="440" width="338" height="30" as="geometry" />
        </mxCell>
        <mxCell id="j7jKjwzYv9FOD8dTJ_4K-23" value="" style="shape=mxgraph.rack.hp.hp_proliant_dl385p_g8;html=1;labelPosition=right;align=left;spacingLeft=15;dashed=0;shadow=0;fillColor=#ffffff;" parent="j7jKjwzYv9FOD8dTJ_4K-2" vertex="1">
          <mxGeometry x="33" y="480" width="338" height="30" as="geometry" />
        </mxCell>
        <mxCell id="j7jKjwzYv9FOD8dTJ_4K-24" value="" style="shape=mxgraph.rack.hp.hp_proliant_dl385p_g8;html=1;labelPosition=right;align=left;spacingLeft=15;dashed=0;shadow=0;fillColor=#ffffff;" parent="j7jKjwzYv9FOD8dTJ_4K-2" vertex="1">
          <mxGeometry x="33" y="530" width="338" height="30" as="geometry" />
        </mxCell>
        <mxCell id="j7jKjwzYv9FOD8dTJ_4K-25" value="" style="shape=mxgraph.rack.hp.hp_proliant_dl385p_g8;html=1;labelPosition=right;align=left;spacingLeft=15;dashed=0;shadow=0;fillColor=#ffffff;" parent="j7jKjwzYv9FOD8dTJ_4K-2" vertex="1">
          <mxGeometry x="33" y="570" width="338" height="30" as="geometry" />
        </mxCell>
        <mxCell id="j7jKjwzYv9FOD8dTJ_4K-20" value="" style="html=1;verticalLabelPosition=bottom;verticalAlign=top;outlineConnect=0;shadow=0;dashed=0;shape=mxgraph.rack.hpe_aruba.gateways_controllers.aruba_clearpass_c1000_front;" parent="j7jKjwzYv9FOD8dTJ_4K-2" vertex="1">
          <mxGeometry x="33" y="640" width="338" height="15" as="geometry" />
        </mxCell>
        <mxCell id="j7jKjwzYv9FOD8dTJ_4K-21" value="" style="html=1;verticalLabelPosition=bottom;verticalAlign=top;outlineConnect=0;shadow=0;dashed=0;shape=mxgraph.rack.hpe_aruba.gateways_controllers.aruba_clearpass_c1000_front;" parent="j7jKjwzYv9FOD8dTJ_4K-2" vertex="1">
          <mxGeometry x="33" y="670" width="338" height="15" as="geometry" />
        </mxCell>
        <mxCell id="j7jKjwzYv9FOD8dTJ_4K-16" value="" style="strokeColor=#666666;html=1;labelPosition=right;align=left;spacingLeft=15;shadow=0;dashed=0;outlineConnect=0;shape=mxgraph.rack.dell.poweredge_r940;" parent="j7jKjwzYv9FOD8dTJ_4K-2" vertex="1">
          <mxGeometry x="33" y="700" width="338" height="45" as="geometry" />
        </mxCell>
        <mxCell id="j7jKjwzYv9FOD8dTJ_4K-17" value="" style="strokeColor=#666666;html=1;labelPosition=right;align=left;spacingLeft=15;shadow=0;dashed=0;outlineConnect=0;shape=mxgraph.rack.dell.poweredge_r940;" parent="j7jKjwzYv9FOD8dTJ_4K-2" vertex="1">
          <mxGeometry x="33" y="750" width="338" height="45" as="geometry" />
        </mxCell>
        <mxCell id="j7jKjwzYv9FOD8dTJ_4K-18" value="" style="strokeColor=#666666;html=1;labelPosition=right;align=left;spacingLeft=15;shadow=0;dashed=0;outlineConnect=0;shape=mxgraph.rack.dell.poweredge_r940;" parent="j7jKjwzYv9FOD8dTJ_4K-2" vertex="1">
          <mxGeometry x="33" y="800" width="338" height="45" as="geometry" />
        </mxCell>
      </root>
    </mxGraphModel>
  </diagram>
  <diagram id="wQ-GUi-_WzfWGC_8WLQI" name="ページ2">
    <mxGraphModel dx="1422" dy="705" grid="1" gridSize="10" guides="1" tooltips="1" connect="1" arrows="1" fold="1" page="1" pageScale="1" pageWidth="827" pageHeight="1169" math="0" shadow="0">
      <root>
        <mxCell id="OC6crIIQOsB2kGwtT04u-0" />
        <mxCell id="OC6crIIQOsB2kGwtT04u-1" parent="OC6crIIQOsB2kGwtT04u-0" />
        <mxCell id="OC6crIIQOsB2kGwtT04u-2" value="" style="verticalLabelPosition=bottom;aspect=fixed;html=1;verticalAlign=top;strokeColor=none;align=center;outlineConnect=0;shape=mxgraph.citrix.citrix_logo;fillColor=#4E4F53;" vertex="1" parent="OC6crIIQOsB2kGwtT04u-1">
          <mxGeometry x="330" y="330" width="160" height="62.5" as="geometry" />
        </mxCell>
        <mxCell id="OC6crIIQOsB2kGwtT04u-3" value="" style="dashed=0;outlineConnect=0;html=1;align=center;labelPosition=center;verticalLabelPosition=bottom;verticalAlign=top;shape=mxgraph.webicons.oracle;fillColor=#FA3743;gradientColor=#E10E11" vertex="1" parent="OC6crIIQOsB2kGwtT04u-1">
          <mxGeometry x="330" y="180" width="102.4" height="102.4" as="geometry" />
        </mxCell>
        <mxCell id="OC6crIIQOsB2kGwtT04u-4" value="" style="dashed=0;outlineConnect=0;html=1;align=center;labelPosition=center;verticalLabelPosition=bottom;verticalAlign=top;shape=mxgraph.webicons.apache;gradientColor=#DFDEDE" vertex="1" parent="OC6crIIQOsB2kGwtT04u-1">
          <mxGeometry x="480" y="180" width="102.4" height="102.4" as="geometry" />
        </mxCell>
      </root>
    </mxGraphModel>
  </diagram>
</mxfile>
